<svg xmlns="http://www.w3.org/2000/svg" xmlns:xlink="http://www.w3.org/1999/xlink" version="1.1" height="79" width="409.3316320457893" viewBox="0 0 409.3316320457893 79"><g id="SvgjsG1011" rel="mainfill" name="main_text" xmlns:name="mainText_mainfill" fill="#555555" transform="translate(93.19762655882414,-4.010997772216797)"><path d="M8.862 20.412 q0.63 0 0.63 0.546 l0 24.024 q-0.042 2.016 -0.987 3.465 t-2.226 2.394 t-2.604 1.407 t-2.121 0.462 l-0.294 0 q-0.42 -0.168 -0.42 -0.546 t0.336 -0.546 q1.974 -0.714 3.171 -2.247 t1.197 -4.179 l0 -0.252 l0 -1.827 l0 -3.234 t-0.021 -4.137 t-0.021 -4.557 l0 -4.431 l0 -3.864 q0 -0.378 -0.273 -0.651 t-0.651 -0.273 l-1.386 0 q-0.546 0 -0.546 -0.588 q0 -0.546 0.546 -0.546 l1.407 0 t1.995 -0.084 q0.84 -0.084 1.428 -0.168 t0.672 -0.168 l0.168 0 z M7.56 16.968 q-0.966 0 -1.638 -0.714 t-0.672 -1.68 q0 -1.008 0.672 -1.701 t1.68 -0.693 q0.882 0 1.533 0.714 t0.651 1.68 t-0.651 1.659 t-1.575 0.735 z M48.846000000000004 41.37 q0 0.63 -0.588 0.63 l-8.988 0 q-0.588 0 -0.588 -0.63 q0 -0.168 0.147 -0.357 t0.441 -0.189 l1.89 0 q0.084 0 0.294 -0.189 t0.294 -0.651 q0.21 -1.134 0.273 -2.919 t0.063 -3.759 q0 -2.142 -0.084 -4.137 t-0.252 -3.213 q-0.21 -1.386 -0.525 -2.058 t-0.525 -0.84 q-0.294 -0.21 -0.693 -0.294 t-0.777 -0.084 q-0.588 0 -1.092 0.126 q-0.42 0.084 -0.63 0.084 q-0.126 0.084 -0.546 0.294 t-0.966 0.588 t-1.134 0.924 t-1.092 1.26 q-0.252 0.336 -0.504 1.008 t-0.483 1.575 t-0.399 1.974 t-0.252 2.121 q0 0.252 -0.042 0.378 l0 0.294 q0 0.21 -0.021 0.441 t-0.021 0.441 q-0.084 0.798 -0.126 1.596 t-0.042 1.596 q0 1.554 0.252 2.478 q0.126 0.588 0.525 0.777 t0.525 0.189 l1.722 0 q0.21 0 0.378 0.189 t0.168 0.399 q0 0.588 -0.546 0.588 l-9.282 0 q-0.546 0 -0.546 -0.588 q0 -0.21 0.147 -0.399 t0.399 -0.189 l2.016 0 q0.294 0 0.504 -0.21 t0.252 -0.546 q0.084 -1.176 0.147 -2.646 t0.063 -3.066 q0 -2.268 -0.105 -4.473 t-0.357 -3.927 q-0.168 -1.386 -0.504 -2.058 t-0.546 -0.84 q-0.294 -0.21 -0.672 -0.294 t-0.798 -0.084 q-1.05 0 -1.68 0.21 q-0.042 0 -0.42 0.147 t-0.924 0.462 t-1.134 0.777 t-1.092 1.092 q-0.504 0.672 -0.84 1.533 t-0.588 1.764 t-0.399 1.806 t-0.231 1.659 q-0.126 1.386 -0.126 2.94 q0 1.47 0.063 2.814 t0.147 2.184 q0.042 0.336 0.273 0.546 t0.567 0.21 l1.89 0 q0.252 0 0.42 0.189 t0.168 0.399 q0 0.588 -0.588 0.588 l-8.988 0 q-0.588 0 -0.588 -0.588 q0 -0.21 0.168 -0.399 t0.42 -0.189 l1.596 0 q0.294 0 0.546 -0.252 t0.252 -0.63 l0 -16.968 q0 -0.336 -0.252 -0.567 t-0.588 -0.231 l-1.512 0 q-0.588 0 -0.588 -0.588 q0 -0.546 0.588 -0.546 l0.798 0 l1.281 0 t1.239 -0.084 q0.588 -0.042 0.924 -0.126 t0.462 -0.168 t0.336 -0.084 t0.357 0.126 t0.231 0.294 q0.21 0.714 0.336 1.827 t0.21 1.869 q0.462 -0.378 1.134 -0.945 t1.533 -1.134 t1.848 -1.05 t2.037 -0.777 l-0.042 0 q0.084 -0.042 0.651 -0.126 t1.323 -0.084 q0.924 0 1.932 0.231 t1.806 0.945 q0.336 0.252 0.756 0.945 t0.714 1.911 q0.378 -0.336 1.071 -0.882 t1.554 -1.113 t1.827 -1.071 t1.974 -0.756 q0.126 -0.042 0.714 -0.126 t1.344 -0.084 q0.882 0 1.869 0.21 t1.785 0.924 q0.378 0.336 0.924 1.365 t0.756 3.045 q0.084 1.176 0.126 2.772 t0.042 3.234 q0 1.47 -0.021 2.877 t-0.063 2.499 q-0.042 1.302 -0.084 2.436 q0 0.336 0.273 0.609 t0.609 0.273 l1.512 0 q0.252 0 0.42 0.189 t0.168 0.357 z M67.11600000000001 40.026 q0 0.378 0.231 0.63 t0.609 0.252 l0.924 0 q0.168 0 0.378 0.147 t0.21 0.399 q0 0.588 -0.588 0.588 l-0.966 0 l-0.588 0 t-0.672 0.042 q-0.588 0.042 -0.924 0.147 t-0.462 0.147 q-0.126 0.084 -0.336 0.084 q-0.336 0 -0.546 -0.378 q-0.168 -0.546 -0.231 -0.84 t-0.105 -0.462 t-0.084 -0.21 q-0.84 0.462 -2.079 1.029 t-2.583 0.777 l-0.378 0 q-0.714 0.126 -1.722 0.126 q-0.672 0 -1.428 -0.105 t-1.512 -0.357 t-1.428 -0.693 t-1.218 -1.155 q-0.588 -0.84 -0.882 -1.764 t-0.294 -1.89 q0 -1.134 0.378 -2.142 t1.092 -1.827 t1.596 -1.386 t1.827 -0.882 t1.827 -0.357 l3.612 0 q0.126 0 0.441 -0.042 t0.693 -0.189 t0.735 -0.399 t0.567 -0.714 q0.126 -0.294 0.21 -0.945 t0.084 -1.449 q0 -1.176 -0.294 -2.016 q-0.168 -0.42 -0.483 -0.756 t-0.63 -0.567 t-0.609 -0.357 t-0.42 -0.168 q-0.336 -0.126 -0.651 -0.168 t-0.651 -0.042 q-0.882 0 -1.659 0.357 t-1.197 0.945 q-0.252 0.336 -0.315 0.714 t-0.063 0.714 l0 0.378 t0.042 0.378 q0 0.21 0.021 0.357 t0.021 0.357 q0 0.462 -0.147 0.84 t-0.483 0.672 q-0.504 0.462 -1.344 0.462 t-1.26 -0.42 q-0.672 -0.546 -0.672 -1.722 q0 -0.756 0.252 -1.554 t0.672 -1.47 q0.882 -1.26 2.121 -1.722 t2.163 -0.588 q0.21 -0.042 0.735 -0.084 t1.197 -0.042 q1.134 0 2.541 0.231 t2.541 1.029 q0.63 0.462 1.05 1.197 t0.672 1.512 t0.357 1.428 t0.105 0.945 l0 12.978 z M61.53000000000001 40.194 q1.05 -0.714 1.617 -1.974 t0.567 -2.898 q0 -1.596 -0.714 -3.528 q-0.672 -0.168 -1.323 -0.231 t-1.281 -0.063 q-2.226 0 -3.822 0.819 t-2.184 2.205 q-0.378 0.714 -0.378 1.764 q0 0.588 0.147 1.176 t0.483 1.176 t0.798 0.987 t0.903 0.651 t0.798 0.378 t0.567 0.168 q0.336 0.084 0.609 0.105 t0.567 0.021 q0.798 0 1.491 -0.21 t1.155 -0.546 z M96.138 21 q0.252 0 0.42 0.21 t0.168 0.42 t-0.168 0.399 t-0.42 0.189 l-1.512 0 q-0.966 0 -1.386 0.882 q-0.252 0.63 -1.092 2.457 t-1.995 4.347 t-2.583 5.46 t-2.877 5.838 t-2.856 5.502 t-2.541 4.41 l0 -0.042 q-0.504 0.84 -1.533 1.365 t-2.079 0.525 q-0.294 0 -0.714 -0.084 q-0.462 -0.084 -1.218 -0.462 t-1.134 -1.176 q-0.336 -0.798 -0.336 -1.848 q0 -0.588 0.126 -1.113 t0.378 -0.819 q0.21 -0.252 0.903 -0.483 t1.281 -0.231 q0.546 0 0.903 0.189 t0.357 0.735 q0 0.294 -0.21 1.008 q-0.084 0.504 -0.21 1.113 t-0.126 1.071 l0 0.336 q0.042 0.042 0.21 0.105 t0.462 0.063 q0.336 0 0.714 -0.168 t0.714 -0.588 q0.63 -0.714 1.281 -1.785 t1.26 -2.205 t1.134 -2.226 t0.861 -1.848 l0.336 -0.798 q0.084 -0.126 0.084 -0.378 q0 -0.21 -0.084 -0.336 q-0.588 -1.176 -1.218 -2.583 t-1.281 -2.898 t-1.281 -2.961 t-1.218 -2.856 q-1.386 -3.234 -2.73 -6.552 q-0.378 -0.924 -1.344 -0.924 l-1.806 0 q-0.63 0 -0.63 -0.672 q0 -0.168 0.168 -0.378 t0.462 -0.21 l9.954 0 q0.168 0 0.378 0.21 t0.21 0.42 q0 0.294 -0.21 0.462 t-0.378 0.168 l-1.554 0 q-0.378 0 -0.609 0.231 t-0.231 0.567 q0 0.21 0.042 0.336 q0.042 0.084 0.378 0.966 t0.819 2.226 t1.113 2.961 t1.197 3.129 t1.071 2.772 t0.798 1.89 q1.89 -3.612 3.549 -7.182 t2.877 -6.762 l0.042 0 q0 -0.084 0.021 -0.168 t0.021 -0.168 q0 -0.336 -0.252 -0.588 t-0.588 -0.252 l-1.05 0 q-0.588 0 -0.588 -0.63 q0 -0.168 0.147 -0.378 t0.441 -0.21 l6.762 0 l0 0 z M100.59 44.562 q0.378 -0.294 0.756 -0.462 t0.714 -0.294 q-1.554 -0.84 -2.541 -2.016 t-0.987 -2.436 q0 -0.966 0.546 -1.827 t1.323 -1.596 t1.617 -1.281 t1.386 -0.882 q-0.966 -1.092 -1.533 -2.394 t-0.567 -2.772 q0 -1.428 0.651 -2.835 t1.743 -2.541 t2.499 -1.869 t2.961 -0.735 q1.596 0 2.919 0.693 t2.373 1.911 q0.378 -0.42 1.176 -1.197 t1.638 -1.239 q0.336 -0.126 0.693 -0.231 t0.777 -0.105 q0.504 0 0.966 0.168 q0.882 0.42 1.344 1.407 t0.462 1.995 q0 1.344 -0.756 2.016 q-0.546 0.42 -1.26 0.42 q-0.672 0 -1.218 -0.378 q-0.42 -0.336 -0.546 -0.84 t-0.126 -1.05 q0 -0.21 0.021 -0.462 t0.021 -0.462 q0.042 -0.21 0.042 -0.357 l0 -0.315 l0 -0.42 l-0.084 0 q-0.294 0.042 -0.651 0.441 t-0.651 0.861 q-0.336 0.798 -0.336 1.596 q0.336 0.588 0.672 1.512 t0.336 2.1 l0 0.462 q-0.126 1.47 -0.819 2.793 t-1.764 2.352 t-2.373 1.659 t-2.562 0.672 l-0.21 0 q-0.84 0 -1.47 -0.21 t-1.218 -0.42 q-0.42 -0.168 -0.819 -0.294 t-0.819 -0.126 q-0.336 0 -0.756 0.126 q-0.966 0.378 -1.743 1.302 t-0.777 1.806 q0 0.168 0.042 0.294 l0.042 0.084 l-0.042 -0.042 q0.168 0.504 0.966 0.777 t2.079 0.42 t2.961 0.21 t3.57 0.105 l0.546 0 q0.588 0 1.911 0.147 t2.961 0.861 q1.386 0.672 1.974 1.302 t0.798 1.05 q0.042 0.042 0.315 0.714 t0.273 1.722 q-0.042 1.512 -1.134 2.877 t-2.898 2.247 q-0.126 0.084 -0.441 0.189 t-0.651 0.231 t-0.672 0.231 t-0.504 0.147 q-0.966 0.252 -2.226 0.42 t-2.73 0.168 q-1.302 0 -2.982 -0.21 t-3.213 -0.693 t-2.667 -1.218 t-1.386 -1.827 q-0.126 -0.294 -0.126 -0.756 q0 -1.176 0.63 -2.268 l0 0.042 q0.336 -0.588 0.777 -0.924 t0.777 -0.588 l0 0.042 z M116.844 48.888 q0.084 -0.084 0.231 -0.294 t0.189 -0.504 l0 -0.126 q0 -0.42 -0.189 -0.735 t-0.273 -0.441 q-0.588 -0.756 -1.764 -1.197 t-2.373 -0.693 t-2.142 -0.336 t-1.071 -0.084 l-0.756 0 q-0.714 0 -1.911 0.105 t-2.583 0.525 l0 -0.042 q-0.588 0.21 -1.26 0.546 t-1.218 0.966 q-0.21 0.294 -0.399 0.63 t-0.189 0.714 q0 0.084 0.063 0.42 t0.273 0.714 q0.504 0.84 2.478 1.491 t4.914 0.735 l0.126 0 q2.016 0 3.423 -0.315 t2.352 -0.714 t1.428 -0.798 t0.651 -0.567 z M112.644 33.138 q0.252 -0.63 0.357 -1.386 t0.105 -1.596 q0 -0.924 -0.105 -1.911 t-0.294 -1.848 t-0.399 -1.575 t-0.378 -1.092 q-0.294 -0.588 -0.756 -0.924 t-0.903 -0.504 t-0.798 -0.21 t-0.441 -0.042 t-0.546 0.063 t-1.029 0.294 t-1.113 0.714 t-0.798 1.281 q-0.294 1.008 -0.294 2.562 q0 0.966 0.105 1.932 t0.273 1.848 t0.357 1.575 t0.357 1.071 q0.252 0.588 0.651 0.945 t0.819 0.525 t0.798 0.21 t0.588 0.042 q0.042 0 0.504 -0.042 t1.029 -0.252 t1.113 -0.588 t0.798 -1.092 z M139.776 40.026 q0 0.378 0.231 0.63 t0.609 0.252 l0.924 0 q0.168 0 0.378 0.147 t0.21 0.399 q0 0.588 -0.588 0.588 l-0.966 0 l-0.588 0 t-0.672 0.042 q-0.588 0.042 -0.924 0.147 t-0.462 0.147 q-0.126 0.084 -0.336 0.084 q-0.336 0 -0.546 -0.378 q-0.168 -0.546 -0.231 -0.84 t-0.105 -0.462 t-0.084 -0.21 q-0.84 0.462 -2.079 1.029 t-2.583 0.777 l-0.378 0 q-0.714 0.126 -1.722 0.126 q-0.672 0 -1.428 -0.105 t-1.512 -0.357 t-1.428 -0.693 t-1.218 -1.155 q-0.588 -0.84 -0.882 -1.764 t-0.294 -1.89 q0 -1.134 0.378 -2.142 t1.092 -1.827 t1.596 -1.386 t1.827 -0.882 t1.827 -0.357 l3.612 0 q0.126 0 0.441 -0.042 t0.693 -0.189 t0.735 -0.399 t0.567 -0.714 q0.126 -0.294 0.21 -0.945 t0.084 -1.449 q0 -1.176 -0.294 -2.016 q-0.168 -0.42 -0.483 -0.756 t-0.63 -0.567 t-0.609 -0.357 t-0.42 -0.168 q-0.336 -0.126 -0.651 -0.168 t-0.651 -0.042 q-0.882 0 -1.659 0.357 t-1.197 0.945 q-0.252 0.336 -0.315 0.714 t-0.063 0.714 l0 0.378 t0.042 0.378 q0 0.21 0.021 0.357 t0.021 0.357 q0 0.462 -0.147 0.84 t-0.483 0.672 q-0.504 0.462 -1.344 0.462 t-1.26 -0.42 q-0.672 -0.546 -0.672 -1.722 q0 -0.756 0.252 -1.554 t0.672 -1.47 q0.882 -1.26 2.121 -1.722 t2.163 -0.588 q0.21 -0.042 0.735 -0.084 t1.197 -0.042 q1.134 0 2.541 0.231 t2.541 1.029 q0.63 0.462 1.05 1.197 t0.672 1.512 t0.357 1.428 t0.105 0.945 l0 12.978 z M134.19 40.194 q1.05 -0.714 1.617 -1.974 t0.567 -2.898 q0 -1.596 -0.714 -3.528 q-0.672 -0.168 -1.323 -0.231 t-1.281 -0.063 q-2.226 0 -3.822 0.819 t-2.184 2.205 q-0.378 0.714 -0.378 1.764 q0 0.588 0.147 1.176 t0.483 1.176 t0.798 0.987 t0.903 0.651 t0.798 0.378 t0.567 0.168 q0.336 0.084 0.609 0.105 t0.567 0.021 q0.798 0 1.491 -0.21 t1.155 -0.546 z M150.52800000000002 24.15 q0.462 -0.798 1.239 -1.722 t1.785 -1.428 l0 0.042 q0.882 -0.504 2.478 -0.504 q0.588 0 1.239 0.105 t1.239 0.357 q0.546 0.252 0.987 0.651 t0.798 0.84 t0.567 0.84 t0.294 0.651 l-0.042 -0.042 q0.042 0.084 0.168 0.693 t0.126 1.281 q0 0.378 -0.063 0.756 t-0.273 0.63 q-0.294 0.462 -0.756 0.63 t-0.924 0.168 q-0.546 0 -1.029 -0.21 t-0.693 -0.546 q-0.084 -0.168 -0.105 -0.357 t-0.021 -0.441 l0 -0.84 q0.042 -0.252 0.042 -0.525 l0 -0.525 q0 -0.378 -0.021 -0.693 t-0.147 -0.567 q-0.168 -0.42 -0.693 -0.819 t-1.239 -0.399 q-0.798 0 -1.533 0.462 t-1.155 1.092 q-0.462 0.672 -0.84 1.596 t-0.651 1.806 t-0.42 1.575 t-0.189 0.945 q-0.21 1.344 -0.315 2.793 t-0.105 2.751 q0 1.008 0.021 1.89 t0.105 1.512 q0.042 0.756 0.126 1.344 q0 0.336 0.252 0.609 t0.588 0.273 l1.68 0 q0.504 0 0.504 0.546 q0 0.63 -0.546 0.63 l-8.526 0 q-0.252 0 -0.42 -0.189 t-0.168 -0.441 q0 -0.21 0.168 -0.378 t0.42 -0.168 l1.302 0 q0.336 0 0.588 -0.273 t0.252 -0.609 l0 -16.884 q-0.042 -0.336 -0.294 -0.588 t-0.588 -0.252 l-1.134 0 q-0.252 0 -0.42 -0.189 t-0.168 -0.399 q0 -0.63 0.588 -0.63 l1.239 0 t1.827 -0.084 l1.029 -0.147 t0.777 -0.147 q0.084 0 0.189 -0.021 t0.147 -0.021 q0.714 0 0.714 0.546 l0 3.024 z M184.8 40.908 q0.21 0 0.357 0.147 t0.147 0.399 q0 0.546 -0.546 0.546 l-1.428 0 l-0.924 0 t-0.84 0.042 q-0.588 0.084 -0.945 0.168 t-0.483 0.168 q-0.084 0.084 -0.294 0.084 t-0.336 -0.126 t-0.21 -0.252 q0 0.042 -0.042 -0.63 t-0.126 -1.512 l-0.168 -2.184 q-0.714 1.218 -1.68 2.226 q-0.84 0.84 -1.995 1.617 t-2.625 0.945 q-0.21 0.042 -0.399 0.042 l-0.399 0 q-1.008 0 -1.848 -0.231 t-1.491 -0.546 t-1.092 -0.609 t-0.651 -0.462 q-1.302 -0.966 -2.058 -2.205 t-1.134 -2.457 t-0.483 -2.289 t-0.105 -1.743 l0 -0.546 q0 -0.378 0.105 -1.533 t0.525 -2.604 t1.302 -2.94 t2.478 -2.583 q0.252 -0.168 0.693 -0.42 t1.029 -0.504 t1.323 -0.441 t1.575 -0.189 l0.42 0 t0.462 0.042 q1.05 0.126 2.079 0.735 t1.869 1.323 q0.966 0.798 1.89 1.764 l0 -11.76 q0 -0.336 -0.273 -0.546 t-0.651 -0.21 l-1.764 0 q-0.42 0 -0.546 -0.462 q0 -0.63 0.546 -0.63 t1.617 -0.021 t1.953 -0.105 q0.672 -0.084 1.239 -0.147 t0.861 -0.147 l0.21 -0.042 q0.504 0 0.63 0.504 l0 29.484 q0 0.336 0.252 0.588 t0.63 0.252 l1.344 0 z M177.57600000000002 37.506 q0.252 -0.756 0.357 -1.701 t0.105 -1.995 q0 -1.386 -0.168 -2.793 t-0.399 -2.667 t-0.504 -2.247 t-0.483 -1.533 q-0.42 -0.882 -1.008 -1.407 t-1.218 -0.777 t-1.197 -0.315 t-0.903 -0.063 q-0.084 0 -0.735 0.063 t-1.47 0.357 t-1.638 0.861 t-1.197 1.617 q-0.336 0.882 -0.504 1.995 t-0.168 2.331 q0 1.386 0.168 2.772 t0.42 2.646 t0.546 2.268 t0.588 1.554 q0.42 0.882 1.092 1.386 t1.344 0.756 t1.197 0.315 t0.651 0.063 t0.798 -0.105 t1.491 -0.441 t1.617 -1.029 t1.218 -1.911 z M190.764 30.282 q0.084 1.218 0.252 2.436 t0.378 2.268 t0.441 1.89 t0.441 1.302 t0.462 0.798 t0.546 0.63 q0.42 0.378 0.924 0.588 t0.945 0.315 t0.798 0.126 t0.483 0.021 q0.084 0 0.504 -0.042 t1.008 -0.189 t1.26 -0.399 t1.302 -0.672 q0.546 -0.378 1.05 -0.84 t0.903 -0.924 t0.672 -0.84 t0.399 -0.588 l0.168 -0.21 q0.168 -0.168 0.42 -0.168 q0.588 0 0.588 0.546 q0 0.084 -0.042 0.189 t-0.252 0.315 q0.084 0 -0.168 0.252 l-0.63 0.84 t-0.84 1.05 t-0.987 1.071 t-1.029 0.861 q-0.756 0.504 -1.575 0.798 t-1.512 0.42 t-1.134 0.168 t-0.483 0.042 q-0.294 0 -0.819 -0.042 t-1.218 -0.21 t-1.47 -0.462 t-1.533 -0.756 q-1.428 -1.008 -2.247 -2.394 t-1.218 -2.772 t-0.483 -2.499 t-0.084 -1.575 l0 -0.252 q0 -2.73 0.987 -5.208 t3.129 -3.948 q0.798 -0.546 1.617 -0.861 t1.533 -0.462 t1.26 -0.168 t0.84 -0.021 t1.05 0.063 t1.722 0.336 t2.037 0.819 t2.037 1.554 q0.756 0.84 1.197 1.743 t0.672 1.722 t0.315 1.491 t0.084 1.092 l0 0.756 l-14.7 0 z M191.226 25.62 q-0.252 0.714 -0.357 1.575 t-0.147 1.869 l10.836 0 q0 -0.378 -0.042 -0.966 t-0.147 -1.26 t-0.315 -1.365 t-0.588 -1.281 q-0.42 -0.546 -1.008 -0.903 t-1.197 -0.588 t-1.155 -0.315 t-0.924 -0.084 q-0.84 0 -1.659 0.273 t-1.47 0.756 t-1.134 1.071 t-0.693 1.218 z M230.916 41.412 q0 0.252 -0.189 0.42 t-0.357 0.168 l-9.072 0 q-0.546 0 -0.546 -0.588 t0.546 -0.588 l1.932 0 q0.336 0 0.567 -0.21 t0.273 -0.546 q0.084 -1.176 0.147 -2.646 t0.063 -3.066 q0 -2.268 -0.105 -4.473 t-0.357 -3.927 q-0.168 -1.386 -0.504 -2.058 t-0.546 -0.84 q-0.294 -0.21 -0.672 -0.294 t-0.798 -0.084 q-1.05 0 -1.68 0.21 l-0.084 0.042 q-0.168 0.084 -0.567 0.252 t-0.903 0.462 t-1.05 0.735 t-0.966 1.029 q-0.504 0.672 -0.84 1.533 t-0.588 1.764 t-0.399 1.785 t-0.189 1.638 q-0.084 0.756 -0.126 1.533 t-0.042 1.617 q0 1.428 0.063 2.688 t0.147 2.1 q0.042 0.336 0.273 0.546 t0.567 0.21 l1.89 0 q0.588 0 0.588 0.588 t-0.546 0.588 l-9.03 0 q-0.588 0 -0.588 -0.588 t0.588 -0.588 l1.596 0 q0.294 0 0.546 -0.231 t0.252 -0.609 l0 -17.01 q0 -0.336 -0.252 -0.567 t-0.588 -0.231 l-1.512 0 q-0.588 0 -0.588 -0.588 q0 -0.546 0.588 -0.546 l1.218 0 l1.071 0 t1.029 -0.042 q1.302 -0.126 1.302 -0.294 q0.168 -0.126 0.42 -0.126 q0.462 0 0.588 0.462 q0.084 0.336 0.189 0.966 t0.189 1.218 q0.084 0.714 0.168 1.47 l0.042 0 l1.47 -1.176 t1.743 -1.26 t1.806 -1.029 t1.617 -0.441 q0.21 -0.042 0.714 -0.105 t1.134 -0.063 q0.924 0 1.911 0.21 t1.785 0.924 q0.378 0.336 0.945 1.365 t0.777 3.045 q0.084 1.176 0.126 2.751 t0.042 3.213 q0 1.302 -0.021 2.541 t-0.042 2.289 t-0.063 1.806 t-0.042 1.092 l0 0.168 q0 0.336 0.252 0.567 t0.588 0.231 l1.554 0 q0.168 0 0.357 0.168 t0.189 0.42 z M237.51 39.774 q0 1.05 -0.693 1.785 t-1.785 0.777 q-0.966 0 -1.659 -0.735 t-0.693 -1.827 t0.714 -1.827 t1.806 -0.735 q0.966 0.084 1.638 0.798 t0.672 1.764 z M248.262 42.336 q-0.336 0 -0.861 -0.042 t-1.197 -0.189 t-1.449 -0.441 t-1.533 -0.798 q-1.47 -1.008 -2.289 -2.394 t-1.197 -2.772 t-0.462 -2.52 t-0.084 -1.596 l0 -0.42 q0 -2.646 0.987 -5.103 t3.129 -3.885 q0.798 -0.546 1.617 -0.84 t1.512 -0.441 t1.26 -0.168 t0.861 -0.021 q0.546 0 1.428 0.147 t1.848 0.483 t1.932 0.882 t1.638 1.302 q0.63 0.714 0.84 1.743 t0.21 1.827 q0 1.092 -0.168 1.428 q-0.294 0.588 -0.756 0.798 t-0.966 0.21 q-0.588 0 -1.092 -0.231 t-0.714 -0.651 q-0.21 -0.336 -0.252 -0.798 t-0.042 -1.008 l0 -0.462 t0.042 -0.462 l0 -0.84 q0 -0.756 -0.084 -0.924 q-0.42 -0.588 -1.092 -0.945 t-1.302 -0.567 t-1.113 -0.294 t-0.525 -0.084 q-0.126 0 -0.777 0.084 t-1.449 0.42 t-1.575 1.008 t-1.155 1.806 q-0.294 0.798 -0.399 1.722 t-0.105 1.974 q0 1.344 0.147 2.688 t0.378 2.541 t0.504 2.163 t0.525 1.47 q0.42 0.924 1.008 1.428 q0.42 0.42 0.924 0.63 t0.945 0.315 t0.798 0.126 t0.483 0.021 q0.084 0 0.483 -0.063 t0.987 -0.21 t1.26 -0.399 t1.302 -0.63 q0.546 -0.378 1.05 -0.861 t0.924 -0.945 t0.693 -0.84 t0.399 -0.588 l0.168 -0.21 q0.168 -0.126 0.378 -0.126 t0.42 0.147 t0.21 0.399 q0 0.168 -0.021 0.189 l-0.063 0.063 l0.042 0.042 q-0.168 0.168 -0.21 0.294 q-0.168 0.252 -0.504 0.735 t-0.819 1.05 t-1.092 1.155 t-1.323 1.05 q-0.756 0.504 -1.554 0.777 t-1.491 0.42 t-1.134 0.189 t-0.483 0.042 z M267.75 20.664 q2.52 0 4.305 0.861 t2.919 2.31 t1.659 3.318 t0.525 3.843 l0 0.378 q-0.042 2.058 -0.588 4.011 t-1.68 3.486 t-2.94 2.478 t-4.41 0.945 q-2.52 0 -4.242 -0.945 t-2.772 -2.478 t-1.533 -3.486 t-0.483 -3.927 l0 -0.252 q0 -1.974 0.504 -3.864 t1.617 -3.381 t2.877 -2.394 t4.242 -0.903 z M273.12600000000003 37.842 q0.336 -0.882 0.483 -1.932 t0.147 -2.226 q0 -1.344 -0.168 -2.709 t-0.42 -2.562 t-0.546 -2.163 t-0.588 -1.512 q-0.42 -0.756 -1.071 -1.239 t-1.323 -0.756 t-1.26 -0.378 t-0.882 -0.105 q-0.168 0 -0.882 0.105 t-1.554 0.441 t-1.659 1.008 t-1.239 1.806 q-0.504 1.512 -0.504 3.57 q0 1.344 0.168 2.709 t0.42 2.583 t0.546 2.184 t0.546 1.47 q0.42 0.882 1.029 1.386 t1.26 0.756 t1.239 0.315 t0.966 0.063 q0.042 0 0.735 -0.063 t1.575 -0.336 t1.743 -0.84 t1.239 -1.575 z M316.134 41.37 q0 0.63 -0.588 0.63 l-8.988 0 q-0.588 0 -0.588 -0.63 q0 -0.168 0.147 -0.357 t0.441 -0.189 l1.89 0 q0.084 0 0.294 -0.189 t0.294 -0.651 q0.21 -1.134 0.273 -2.919 t0.063 -3.759 q0 -2.142 -0.084 -4.137 t-0.252 -3.213 q-0.21 -1.386 -0.525 -2.058 t-0.525 -0.84 q-0.294 -0.21 -0.693 -0.294 t-0.777 -0.084 q-0.588 0 -1.092 0.126 q-0.42 0.084 -0.63 0.084 q-0.126 0.084 -0.546 0.294 t-0.966 0.588 t-1.134 0.924 t-1.092 1.26 q-0.252 0.336 -0.504 1.008 t-0.483 1.575 t-0.399 1.974 t-0.252 2.121 q0 0.252 -0.042 0.378 l0 0.294 q0 0.21 -0.021 0.441 t-0.021 0.441 q-0.084 0.798 -0.126 1.596 t-0.042 1.596 q0 1.554 0.252 2.478 q0.126 0.588 0.525 0.777 t0.525 0.189 l1.722 0 q0.21 0 0.378 0.189 t0.168 0.399 q0 0.588 -0.546 0.588 l-9.282 0 q-0.546 0 -0.546 -0.588 q0 -0.21 0.147 -0.399 t0.399 -0.189 l2.016 0 q0.294 0 0.504 -0.21 t0.252 -0.546 q0.084 -1.176 0.147 -2.646 t0.063 -3.066 q0 -2.268 -0.105 -4.473 t-0.357 -3.927 q-0.168 -1.386 -0.504 -2.058 t-0.546 -0.84 q-0.294 -0.21 -0.672 -0.294 t-0.798 -0.084 q-1.05 0 -1.68 0.21 q-0.042 0 -0.42 0.147 t-0.924 0.462 t-1.134 0.777 t-1.092 1.092 q-0.504 0.672 -0.84 1.533 t-0.588 1.764 t-0.399 1.806 t-0.231 1.659 q-0.126 1.386 -0.126 2.94 q0 1.47 0.063 2.814 t0.147 2.184 q0.042 0.336 0.273 0.546 t0.567 0.21 l1.89 0 q0.252 0 0.42 0.189 t0.168 0.399 q0 0.588 -0.588 0.588 l-8.988 0 q-0.588 0 -0.588 -0.588 q0 -0.21 0.168 -0.399 t0.42 -0.189 l1.596 0 q0.294 0 0.546 -0.252 t0.252 -0.63 l0 -16.968 q0 -0.336 -0.252 -0.567 t-0.588 -0.231 l-1.512 0 q-0.588 0 -0.588 -0.588 q0 -0.546 0.588 -0.546 l0.798 0 l1.281 0 t1.239 -0.084 q0.588 -0.042 0.924 -0.126 t0.462 -0.168 t0.336 -0.084 t0.357 0.126 t0.231 0.294 q0.21 0.714 0.336 1.827 t0.21 1.869 q0.462 -0.378 1.134 -0.945 t1.533 -1.134 t1.848 -1.05 t2.037 -0.777 l-0.042 0 q0.084 -0.042 0.651 -0.126 t1.323 -0.084 q0.924 0 1.932 0.231 t1.806 0.945 q0.336 0.252 0.756 0.945 t0.714 1.911 q0.378 -0.336 1.071 -0.882 t1.554 -1.113 t1.827 -1.071 t1.974 -0.756 q0.126 -0.042 0.714 -0.126 t1.344 -0.084 q0.882 0 1.869 0.21 t1.785 0.924 q0.378 0.336 0.924 1.365 t0.756 3.045 q0.084 1.176 0.126 2.772 t0.042 3.234 q0 1.47 -0.021 2.877 t-0.063 2.499 q-0.042 1.302 -0.084 2.436 q0 0.336 0.273 0.609 t0.609 0.273 l1.512 0 q0.252 0 0.42 0.189 t0.168 0.357 z"></path></g><g id="SvgjsG1012" rel="mainfill" name="slogan_text" xmlns:name="sloganText_mainfill" fill="#555555" transform="translate(93.31762525229033,52.93100023269653)"><path d="M8.26 19.8 c-0.06666 0.06666 -0.13338 0.11666 -0.20004 0.15 s-0.16 0.05 -0.28 0.05 l-5.2 0 c-0.14666 0 -0.25332 -0.01666 -0.31998 -0.05 s-0.13332 -0.08334 -0.19998 -0.15 l-1.12 -1.14 c-0.06666 -0.06666 -0.12 -0.13 -0.16 -0.19 s-0.06 -0.11666 -0.06 -0.17 l0 -3.14 c0 -0.18666 0.09334 -0.28 0.28 -0.28 l1.84 0 c0.18666 0 0.28 0.09334 0.28 0.28 l0 2.02 c0 0.05334 0.02 0.1 0.06 0.14 l0.28 0.28 l3.4 0 l0.28 -0.28 c0.04 -0.04 0.06 -0.08666 0.06 -0.14 l0 -10.9 c0 -0.06666 0.03 -0.12332 0.09 -0.16998 s0.12334 -0.07 0.19 -0.07 l1.84 0 c0.06666 0 0.13 0.02334 0.19 0.07 s0.09 0.10332 0.09 0.16998 l0 11.86 c0 0.2 -0.07334 0.37334 -0.22 0.52 z M19.16 19.8 c-0.06666 0.06666 -0.14664 0.11666 -0.23998 0.15 s-0.18668 0.05 -0.28002 0.05 l-5.16 0 c-0.08 0 -0.17 -0.01666 -0.27 -0.05 s-0.18334 -0.08334 -0.25 -0.15 l-1.14 -1.14 c-0.10666 -0.10666 -0.16666 -0.2 -0.18 -0.28 s-0.02 -0.16 -0.02 -0.24 l0 -11.82 c0 -0.18666 0.09334 -0.28 0.28 -0.28 l1.84 0 c0.18666 0 0.28 0.09334 0.28 0.28 l0 10.86 c0 0.05334 0.02 0.1 0.06 0.14 l0.28 0.28 l3.4 0 l0.28 -0.28 c0.04 -0.04 0.06 -0.08666 0.06 -0.14 l0 -10.86 c0 -0.18666 0.09334 -0.28 0.28 -0.28 l1.84 0 c0.06666 0 0.13 0.02666 0.19 0.08 s0.09 0.12 0.09 0.2 l0 11.82 c0 0.06666 -0.01666 0.15 -0.05 0.25 s-0.09 0.19 -0.17 0.27 z M29.760000000000005 19.8 c-0.09334 0.09334 -0.18336 0.15 -0.27002 0.17 s-0.20332 0.03 -0.34998 0.03 l-6.26 0 c-0.18666 0 -0.28 -0.09334 -0.28 -0.28 l0 -13.4 c0 -0.18666 0.09334 -0.28 0.28 -0.28 l6.36 0 c0.08 0 0.16 0.0066602 0.24 0.02 s0.17334 0.07334 0.28 0.18 l1.12 1.12 c0.12 0.12 0.18666 0.21666 0.2 0.29 s0.02 0.15 0.02 0.23 l0 10.28 c0 0.10666 -0.02334 0.2 -0.07 0.28 s-0.09666 0.15334 -0.15 0.22 z M28.620000000000005 17.32 c0.04 -0.02666 0.06 -0.07334 0.06 -0.14 l0 -8.22 c0 -0.05334 -0.02 -0.1 -0.06 -0.14 l-0.32 -0.32 c-0.04 -0.04 -0.08666 -0.06 -0.14 -0.06 l-3.16 0 l0 9.16 l3.34 0 z M40.60000000000001 19.8 c-0.08 0.09334 -0.14662 0.15 -0.19996 0.17 s-0.11334 0.03 -0.18 0.03 l-5.36 0 c-0.04 0 -0.10334 -0.01 -0.19 -0.03 s-0.17666 -0.07666 -0.27 -0.17 l-1.14 -1.14 c-0.09334 -0.09334 -0.15 -0.18334 -0.17 -0.27 s-0.03 -0.15 -0.03 -0.19 l0 -10.32 c0 -0.21334 0.06666 -0.38668 0.2 -0.52002 l1.14 -1.12 c0.08 -0.08 0.15334 -0.13334 0.22 -0.16 s0.16666 -0.04 0.3 -0.04 l5.16 0 c0.06666 0 0.14332 0.0066602 0.22998 0.02 s0.18332 0.07334 0.28998 0.18 l1.12 1.12 c0.08 0.08 0.13666 0.15334 0.17 0.22 s0.05 0.16666 0.05 0.3 l0 2.14 c0 0.18666 -0.09334 0.28 -0.28 0.28 l-1.84 0 c-0.18666 0 -0.28 -0.09334 -0.28 -0.28 l0 -1.06 c0 -0.06666 -0.02 -0.11332 -0.06 -0.13998 l-0.34 -0.32 c-0.04 -0.04 -0.09334 -0.06 -0.16 -0.06 l-2.96 0 c-0.06666 0 -0.12 0.02 -0.16 0.06 l-0.34 0.32 c-0.04 0.04 -0.06 0.08666 -0.06 0.14 l0 8.22 c0 0.05334 0.02 0.1 0.06 0.14 l0.28 0.28 l3.4 0 l0.28 -0.28 c0.04 -0.04 0.06 -0.08666 0.06 -0.14 l0 -2.3 l-1.86 0 c-0.18666 0 -0.28 -0.09334 -0.28 -0.28 l0 -1.84 c0 -0.18666 0.09334 -0.28 0.28 -0.28 l3.98 0 c0.18666 0 0.28 0.09334 0.28 0.28 l0 5.54 c0 0.05334 -0.02 0.11 -0.06 0.17 s-0.09334 0.12334 -0.16 0.19 z M44.28 20 c-0.18666 0 -0.28 -0.09334 -0.28 -0.28 l0 -13.4 c0 -0.18666 0.09334 -0.28 0.28 -0.28 l7.26 0 c0.18666 0 0.28 0.09334 0.28 0.28 l0 1.84 c0 0.06666 -0.02666 0.13 -0.08 0.19 s-0.12 0.09 -0.2 0.09 l-5.14 0 l0 3.38 l4.06 0 c0.06666 0 0.13 0.02666 0.19 0.08 s0.09 0.12 0.09 0.2 l0 1.84 c0 0.08 -0.03 0.14666 -0.09 0.2 s-0.12334 0.08 -0.19 0.08 l-4.06 0 l0 3.38 l5.14 0 c0.18666 0 0.28 0.09334 0.28 0.28 l0 1.84 c0 0.18666 -0.09334 0.28 -0.28 0.28 l-7.26 0 z  M67.24 20 c-0.18666 0 -0.28 -0.09334 -0.28 -0.28 l-0.12 -6.8 l-2.04 6.8 c-0.02666 0.06666 -0.07666 0.13 -0.15 0.19 s-0.15 0.09 -0.23 0.09 l-1.6 0 c-0.09334 0 -0.17334 -0.03334 -0.24 -0.1 s-0.11332 -0.14 -0.13998 -0.22 l-2.04 -6.76 l-0.1 6.8 c0 0.18666 -0.09334 0.28 -0.28 0.28 l-1.84 0 c-0.18666 0 -0.28 -0.09334 -0.28 -0.28 l0.54 -13.4 c0 -0.06666 0.02334 -0.13 0.07 -0.19 s0.10332 -0.09 0.16998 -0.09 l1.98 0 c0.14666 0 0.24666 0.09334 0.3 0.28 l2.66 9.8 l2.68 -9.8 c0.05334 -0.18666 0.15334 -0.28 0.3 -0.28 l1.96 0 c0.06666 0 0.12666 0.03 0.18 0.09 s0.08 0.12334 0.08 0.19 l0.54 13.4 c0 0.08 -0.03 0.14666 -0.09 0.2 s-0.12334 0.08 -0.19 0.08 l-1.84 0 z M79.12 20 c-0.08 0 -0.15664 -0.03002 -0.22998 -0.09002 s-0.12334 -0.13 -0.15 -0.21 l-0.78 -2.68 l-4.46 0 l-0.78 2.68 c-0.02666 0.08 -0.07666 0.15 -0.15 0.21 s-0.15 0.09 -0.23 0.09 l-1.74 0 c-0.08 0 -0.15666 -0.03 -0.23 -0.09 s-0.09668 -0.13 -0.07002 -0.21 l3.96 -13.38 c0.02666 -0.06666 0.06 -0.13332 0.1 -0.19998 s0.1 -0.1 0.18 -0.1 l2.36 0 c0.13334 0 0.23334 0.09334 0.3 0.28 l3.94 13.4 c0.02666 0.08 0.0066602 0.15 -0.06 0.21 s-0.14 0.09 -0.22 0.09 l-1.74 0 z M75.72 9.48 l-1.5 5.1 l3.02 0 z M85.64000000000001 20 c-0.14666 0 -0.22 -0.09334 -0.22 -0.28 l0 -6.16 l-3.98 -7.2 c-0.05334 -0.08 -0.04 -0.15334 0.04 -0.22 s0.16 -0.1 0.24 -0.1 l2.02 0 c0.08 0 0.15334 0.03 0.22 0.09 s0.12 0.12334 0.16 0.19 l2.5 5.02 l2.5 -5.02 c0.04 -0.06666 0.09334 -0.13 0.16 -0.19 s0.14 -0.09 0.22 -0.09 l2.02 0 c0.08 0 0.16 0.03334 0.24 0.1 s0.09334 0.14 0.04 0.22 l-3.98 7.2 l0 6.16 c0 0.18666 -0.08 0.28 -0.24 0.28 l-1.94 0 z M100.44 19.8 c-0.08 0.09334 -0.14662 0.15 -0.19996 0.17 s-0.11334 0.03 -0.18 0.03 l-5.36 0 c-0.04 0 -0.10334 -0.01 -0.19 -0.03 s-0.17666 -0.07666 -0.27 -0.17 l-1.14 -1.14 c-0.09334 -0.09334 -0.15 -0.18334 -0.17 -0.27 s-0.03 -0.15 -0.03 -0.19 l0 -10.32 c0 -0.21334 0.06666 -0.38668 0.2 -0.52002 l1.14 -1.12 c0.08 -0.08 0.15334 -0.13334 0.22 -0.16 s0.16666 -0.04 0.3 -0.04 l5.16 0 c0.06666 0 0.14332 0.0066602 0.22998 0.02 s0.18332 0.07334 0.28998 0.18 l1.12 1.12 c0.08 0.08 0.13666 0.15334 0.17 0.22 s0.05 0.16666 0.05 0.3 l0 2.14 c0 0.18666 -0.09334 0.28 -0.28 0.28 l-1.84 0 c-0.18666 0 -0.28 -0.09334 -0.28 -0.28 l0 -1.06 c0 -0.06666 -0.02 -0.11332 -0.06 -0.13998 l-0.34 -0.32 c-0.04 -0.04 -0.09334 -0.06 -0.16 -0.06 l-2.96 0 c-0.06666 0 -0.12 0.02 -0.16 0.06 l-0.34 0.32 c-0.04 0.04 -0.06 0.08666 -0.06 0.14 l0 8.22 c0 0.05334 0.02 0.1 0.06 0.14 l0.28 0.28 l3.4 0 l0.28 -0.28 c0.04 -0.04 0.06 -0.08666 0.06 -0.14 l0 -2.3 l-1.86 0 c-0.18666 0 -0.28 -0.09334 -0.28 -0.28 l0 -1.84 c0 -0.18666 0.09334 -0.28 0.28 -0.28 l3.98 0 c0.18666 0 0.28 0.09334 0.28 0.28 l0 5.54 c0 0.05334 -0.02 0.11 -0.06 0.17 s-0.09334 0.12334 -0.16 0.19 z M111.76 20 c-0.08 0 -0.15664 -0.03002 -0.22998 -0.09002 s-0.12334 -0.13 -0.15 -0.21 l-0.78 -2.68 l-4.46 0 l-0.78 2.68 c-0.02666 0.08 -0.07666 0.15 -0.15 0.21 s-0.15 0.09 -0.23 0.09 l-1.74 0 c-0.08 0 -0.15666 -0.03 -0.23 -0.09 s-0.09668 -0.13 -0.07002 -0.21 l3.96 -13.38 c0.02666 -0.06666 0.06 -0.13332 0.1 -0.19998 s0.1 -0.1 0.18 -0.1 l2.36 0 c0.13334 0 0.23334 0.09334 0.3 0.28 l3.94 13.4 c0.02666 0.08 0.0066602 0.15 -0.06 0.21 s-0.14 0.09 -0.22 0.09 l-1.74 0 z M108.36 9.48 l-1.5 5.1 l3.02 0 z M122.02000000000001 20 c-0.08 0 -0.15334 -0.03 -0.22 -0.09 s-0.11332 -0.12334 -0.13998 -0.19 l-1.98 -4.86 l-2.24 0 l0 4.86 c0 0.18666 -0.09334 0.28 -0.28 0.28 l-1.84 0 c-0.18666 0 -0.28 -0.09334 -0.28 -0.28 l0 -13.4 c0 -0.18666 0.09334 -0.28 0.28 -0.28 l6.36 0 c0.05334 0 0.10668 0.0066602 0.16002 0.02 s0.11 0.03 0.17 0.05 s0.12334 0.06334 0.19 0.13 l1.12 1.12 c0.10666 0.10666 0.17332 0.22666 0.19998 0.36 c0.01334 0.05334 0.02 0.10668 0.02 0.16002 l0 5.08 c0 0.24 -0.07334 0.43334 -0.22 0.58 l-1.18 1.18 l2.02 4.98 c0.02666 0.06666 0.02332 0.13332 -0.01002 0.19998 s-0.11 0.1 -0.23 0.1 l-1.9 0 z M121.06 12.08 c0.04 -0.04 0.05998 -0.08666 0.05998 -0.14 l0 -3.02 c0 -0.04 -0.01334 -0.07334 -0.04 -0.1 l-0.34 -0.32 c-0.06666 -0.04 -0.11332 -0.06 -0.13998 -0.06 l-3.16 0 l0 4.02 l3.16 0 c0.05334 0 0.1 -0.02 0.14 -0.06 z M132.70000000000002 19.8 c-0.09334 0.09334 -0.18336 0.15 -0.27002 0.17 s-0.20332 0.03 -0.34998 0.03 l-6.26 0 c-0.18666 0 -0.28 -0.09334 -0.28 -0.28 l0 -13.4 c0 -0.18666 0.09334 -0.28 0.28 -0.28 l6.36 0 c0.08 0 0.16 0.0066602 0.24 0.02 s0.17334 0.07334 0.28 0.18 l1.12 1.12 c0.12 0.12 0.18666 0.21666 0.2 0.29 s0.02 0.15 0.02 0.23 l0 10.28 c0 0.10666 -0.02334 0.2 -0.07 0.28 s-0.09666 0.15334 -0.15 0.22 z M131.56 17.32 c0.04 -0.02666 0.06 -0.07334 0.06 -0.14 l0 -8.22 c0 -0.05334 -0.02 -0.1 -0.06 -0.14 l-0.32 -0.32 c-0.04 -0.04 -0.08666 -0.06 -0.14 -0.06 l-3.16 0 l0 9.16 l3.34 0 z M136.38000000000002 20 c-0.18666 0 -0.28 -0.09334 -0.28 -0.28 l0 -13.4 c0 -0.18666 0.09334 -0.28 0.28 -0.28 l7.26 0 c0.18666 0 0.28 0.09334 0.28 0.28 l0 1.84 c0 0.06666 -0.02666 0.13 -0.08 0.19 s-0.12 0.09 -0.2 0.09 l-5.14 0 l0 3.38 l4.06 0 c0.06666 0 0.13 0.02666 0.19 0.08 s0.09 0.12 0.09 0.2 l0 1.84 c0 0.08 -0.03 0.14666 -0.09 0.2 s-0.12334 0.08 -0.19 0.08 l-4.06 0 l0 3.38 l5.14 0 c0.18666 0 0.28 0.09334 0.28 0.28 l0 1.84 c0 0.18666 -0.09334 0.28 -0.28 0.28 l-7.26 0 z M151.8 20 c-0.08 0 -0.15666 -0.03 -0.23 -0.09 s-0.12334 -0.12334 -0.15 -0.19 l-3.5 -8.64 l0 8.64 c0 0.18666 -0.09334 0.28 -0.28 0.28 l-1.84 0 c-0.18666 0 -0.28 -0.09334 -0.28 -0.28 l0 -13.4 c0 -0.18666 0.09334 -0.28 0.28 -0.28 l2.44 0 c0.13334 0 0.23334 0.09334 0.3 0.28 l3.1 8.02 l0.12 0.56 l0 -8.58 c0 -0.18666 0.09334 -0.28 0.28 -0.28 l1.84 0 c0.18666 0 0.28 0.09334 0.28 0.28 l0 13.4 c0 0.18666 -0.09334 0.28 -0.28 0.28 l-2.08 0 z"></path></g><defs id="SvgjsDefs1010"></defs><g id="SvgjsG1013" rel="mainfill" name="symbol" xmlns:name="symbol_mainfill" fill="#555555" transform="translate(-5.282017989103314,-5.30083468345604) scale(0.8960166253084774)"><g xmlns="http://www.w3.org/2000/svg"><circle fill-rule="evenodd" clip-rule="evenodd" cx="49.672" cy="9.809" r="3.893"></circle><circle fill-rule="evenodd" clip-rule="evenodd" cx="49.672" cy="18.042" r="3.893"></circle><circle fill-rule="evenodd" clip-rule="evenodd" cx="41.234" cy="18.042" r="3.893"></circle><circle fill-rule="evenodd" clip-rule="evenodd" cx="58.007" cy="18.042" r="3.893"></circle><circle fill-rule="evenodd" clip-rule="evenodd" cx="49.672" cy="26.225" r="3.893"></circle><circle fill-rule="evenodd" clip-rule="evenodd" cx="41.234" cy="26.225" r="3.893"></circle><circle fill-rule="evenodd" clip-rule="evenodd" cx="58.007" cy="26.225" r="3.893"></circle><circle fill-rule="evenodd" clip-rule="evenodd" cx="66.343" cy="26.225" r="3.893"></circle><circle fill-rule="evenodd" clip-rule="evenodd" cx="32.873" cy="26.225" r="3.893"></circle><circle fill-rule="evenodd" clip-rule="evenodd" cx="41.234" cy="34.311" r="3.489"></circle><circle fill-rule="evenodd" clip-rule="evenodd" cx="58.007" cy="34.311" r="3.489"></circle><circle fill-rule="evenodd" clip-rule="evenodd" cx="66.343" cy="34.413" r="3.489"></circle><circle fill-rule="evenodd" clip-rule="evenodd" cx="32.873" cy="34.311" r="3.489"></circle><circle fill-rule="evenodd" clip-rule="evenodd" cx="49.672" cy="34.311" r="3.489"></circle><circle fill-rule="evenodd" clip-rule="evenodd" cx="74.725" cy="34.311" r="3.489"></circle><circle fill-rule="evenodd" clip-rule="evenodd" cx="24.663" cy="34.311" r="3.489"></circle><circle fill-rule="evenodd" clip-rule="evenodd" cx="41.234" cy="42.34" r="3.489"></circle><circle fill-rule="evenodd" clip-rule="evenodd" cx="58.007" cy="42.34" r="3.489"></circle><circle fill-rule="evenodd" clip-rule="evenodd" cx="66.343" cy="42.443" r="3.489"></circle><circle fill-rule="evenodd" clip-rule="evenodd" cx="32.873" cy="42.34" r="3.489"></circle><circle fill-rule="evenodd" clip-rule="evenodd" cx="49.672" cy="42.34" r="3.489"></circle><circle fill-rule="evenodd" clip-rule="evenodd" cx="74.725" cy="42.34" r="3.489"></circle><circle fill-rule="evenodd" clip-rule="evenodd" cx="24.663" cy="42.34" r="3.489"></circle><circle fill-rule="evenodd" clip-rule="evenodd" cx="82.886" cy="42.34" r="3.489"></circle><circle fill-rule="evenodd" clip-rule="evenodd" cx="16.809" cy="42.34" r="3.489"></circle><circle fill-rule="evenodd" clip-rule="evenodd" cx="74.725" cy="50.596" r="3.058"></circle><circle fill-rule="evenodd" clip-rule="evenodd" cx="66.343" cy="50.596" r="3.058"></circle><circle fill-rule="evenodd" clip-rule="evenodd" cx="58.007" cy="50.596" r="3.058"></circle><circle fill-rule="evenodd" clip-rule="evenodd" cx="49.672" cy="50.596" r="3.058"></circle><circle fill-rule="evenodd" clip-rule="evenodd" cx="41.234" cy="50.596" r="3.058"></circle><circle fill-rule="evenodd" clip-rule="evenodd" cx="24.663" cy="50.596" r="3.058"></circle><circle fill-rule="evenodd" clip-rule="evenodd" cx="32.873" cy="50.596" r="3.058"></circle><circle fill-rule="evenodd" clip-rule="evenodd" cx="16.809" cy="50.596" r="3.058"></circle><circle fill-rule="evenodd" clip-rule="evenodd" cx="8.953" cy="50.596" r="3.058"></circle><circle fill-rule="evenodd" clip-rule="evenodd" cx="82.886" cy="50.596" r="3.058"></circle><circle fill-rule="evenodd" clip-rule="evenodd" cx="91.047" cy="50.596" r="3.058"></circle><circle fill-rule="evenodd" clip-rule="evenodd" cx="49.672" cy="59.048" r="2.767"></circle><circle fill-rule="evenodd" clip-rule="evenodd" cx="49.672" cy="66.988" r="2.498"></circle><circle fill-rule="evenodd" clip-rule="evenodd" cx="49.672" cy="75.147" r="2.255"></circle><circle fill-rule="evenodd" clip-rule="evenodd" cx="49.672" cy="83.658" r="2.024"></circle><circle fill-rule="evenodd" clip-rule="evenodd" cx="49.672" cy="92.426" r="1.658"></circle><circle fill-rule="evenodd" clip-rule="evenodd" cx="58.007" cy="59.048" r="2.767"></circle><circle fill-rule="evenodd" clip-rule="evenodd" cx="66.343" cy="59.048" r="2.767"></circle><circle fill-rule="evenodd" clip-rule="evenodd" cx="74.725" cy="59.048" r="2.767"></circle><circle fill-rule="evenodd" clip-rule="evenodd" cx="32.873" cy="59.048" r="2.767"></circle><circle fill-rule="evenodd" clip-rule="evenodd" cx="41.234" cy="59.048" r="2.767"></circle><circle fill-rule="evenodd" clip-rule="evenodd" cx="16.809" cy="59.048" r="2.767"></circle><circle fill-rule="evenodd" clip-rule="evenodd" cx="24.663" cy="59.048" r="2.767"></circle><circle fill-rule="evenodd" clip-rule="evenodd" cx="82.886" cy="59.048" r="2.767"></circle><circle fill-rule="evenodd" clip-rule="evenodd" cx="58.007" cy="66.988" r="2.498"></circle><circle fill-rule="evenodd" clip-rule="evenodd" cx="32.873" cy="66.988" r="2.498"></circle><circle fill-rule="evenodd" clip-rule="evenodd" cx="41.234" cy="66.988" r="2.498"></circle><circle fill-rule="evenodd" clip-rule="evenodd" cx="66.343" cy="66.988" r="2.498"></circle><circle fill-rule="evenodd" clip-rule="evenodd" cx="74.725" cy="66.988" r="2.498"></circle><circle fill-rule="evenodd" clip-rule="evenodd" cx="24.663" cy="66.988" r="2.498"></circle><circle fill-rule="evenodd" clip-rule="evenodd" cx="58.007" cy="75.147" r="2.255"></circle><circle fill-rule="evenodd" clip-rule="evenodd" cx="32.873" cy="75.147" r="2.255"></circle><circle fill-rule="evenodd" clip-rule="evenodd" cx="41.234" cy="75.147" r="2.255"></circle><circle fill-rule="evenodd" clip-rule="evenodd" cx="66.343" cy="75.147" r="2.255"></circle><circle fill-rule="evenodd" clip-rule="evenodd" cx="58.007" cy="83.658" r="2.024"></circle><circle fill-rule="evenodd" clip-rule="evenodd" cx="41.234" cy="83.658" r="2.024"></circle></g></g></svg>
